<svg id="Layer_1" data-name="Layer 1" xmlns="http://www.w3.org/2000/svg" viewBox="0 0 512 512"><path d="M339.81,198.15c-30.16-32-83.39-12.36-87.11,30a11.82,11.82,0,0,0-4.66,2.87l-2,2a37.88,37.88,0,0,1-1.46-11.69,36.21,36.21,0,0,1,15.71-30,15.84,15.84,0,0,0-1.13-26.64c-18.38-10.73-43.16-10.13-61,7.46-31.94,30.09-12.45,83.15,29.75,87.08a12,12,0,0,0,3.17,5.73l1.19,1.18a37.72,37.72,0,0,1-10.89,1.24,36.21,36.21,0,0,1-30-15.71,15.84,15.84,0,0,0-26.64,1.13c-10.73,18.38-10.13,43.16,7.46,61,29.84,31.67,82.26,12.78,87-28.69A11.82,11.82,0,0,0,265,282l1.39-1.39a38.15,38.15,0,0,1,1,10.05,36.21,36.21,0,0,1-15.71,30,15.84,15.84,0,0,0,1.13,26.64c18.38,10.73,43.16,10.13,61-7.46,31.74-29.9,12.7-82.48-29-87A11.75,11.75,0,0,0,282,248l-2.21-2.22a37.87,37.87,0,0,1,10.86-1.23,36.21,36.21,0,0,1,30,15.71,15.84,15.84,0,0,0,26.64-1.13C358,240.78,357.4,216,339.81,198.15Z"/></svg>