<svg id="Layer_1" data-name="Layer 1" xmlns="http://www.w3.org/2000/svg" viewBox="0 0 512 512"><defs><style>.cls-1{fill:none;stroke:#000;stroke-miterlimit:10;stroke-width:13.33px;}</style></defs><path d="M207,239.24,51,290.58a10.06,10.06,0,0,0-6.2,13.18,314.64,314.64,0,0,0,32.11,62,10,10,0,0,0,14.31,2.56l134-98.57a10,10,0,0,0,1.94-14.27q-4.54-5.87-8.53-12.18A10,10,0,0,0,207,239.24Z"/><path d="M231.58,273.62,95.24,373.94a10,10,0,0,0-1.83,14.41,314.58,314.58,0,0,0,49.05,48.83,10.05,10.05,0,0,0,14.44-2L256.34,296.6a10,10,0,0,0-2-13.79q-5.18-4-10-8.49A10,10,0,0,0,231.58,273.62Z"/><path d="M191.42,197.13H34.28a10,10,0,0,0-10,10.65A317,317,0,0,0,35.89,277.2,10,10,0,0,0,48.68,284l152-50a10,10,0,0,0,6.15-13.29,153.59,153.59,0,0,1-5.8-16.47A10,10,0,0,0,191.42,197.13Z"/><path d="M262.62,299.66,162.4,439.34a10.05,10.05,0,0,0,2.68,14.25,307.78,307.78,0,0,0,61.24,31.2,10.06,10.06,0,0,0,13.13-6.3l52.66-164.14a10,10,0,0,0-5.54-12.24c-3.75-1.65-7.42-3.46-11-5.4A10,10,0,0,0,262.62,299.66Z"/><path d="M298.45,317,246,480.65a10,10,0,0,0,7,12.75A306.76,306.76,0,0,0,320.47,504,10.05,10.05,0,0,0,331,494V322.83a10,10,0,0,0-8.34-9.87q-6.15-1-12.13-2.57A10.06,10.06,0,0,0,298.45,317Z"/><path class="cls-1" d="M475,276.76H353.37A134.38,134.38,0,0,1,219,142.38h0V20.7A12.71,12.71,0,0,1,231.69,8H475a12.7,12.7,0,0,1,12.7,12.7V264.05A12.7,12.7,0,0,1,475,276.76ZM439.75,8V276.76"/></svg>