<svg id="Layer_1" data-name="Layer 1" xmlns="http://www.w3.org/2000/svg" viewBox="0 0 512 512"><defs><style>.cls-1{fill:none;stroke:#000;stroke-miterlimit:10;stroke-width:13.33px;}</style></defs><path d="M215.16,242,85.1,284.82a8.38,8.38,0,0,0-5.17,11,262.55,262.55,0,0,0,26.76,51.7,8.37,8.37,0,0,0,11.93,2.13l111.66-82.15a8.37,8.37,0,0,0,1.61-11.9q-3.78-4.89-7.1-10.15A8.3,8.3,0,0,0,215.16,242Z"/><path d="M235.65,270.68,122,354.3a8.38,8.38,0,0,0-1.53,12A261.37,261.37,0,0,0,161.37,407a8.37,8.37,0,0,0,12-1.63l82.89-115.53a8.37,8.37,0,0,0-1.71-11.49q-4.31-3.36-8.33-7.08A8.34,8.34,0,0,0,235.65,270.68Z"/><path d="M202.17,206.93H71.2a8.38,8.38,0,0,0-8.34,8.88,264.58,264.58,0,0,0,9.68,57.86,8.39,8.39,0,0,0,10.67,5.7l126.67-41.68A8.32,8.32,0,0,0,215,226.61a127.42,127.42,0,0,1-4.83-13.73A8.3,8.3,0,0,0,202.17,206.93Z"/><path d="M261.52,292.39,178,408.81a8.37,8.37,0,0,0,2.23,11.88,257,257,0,0,0,51,26,8.38,8.38,0,0,0,10.94-5.25l43.89-136.8a8.38,8.38,0,0,0-4.61-10.21q-4.69-2.07-9.18-4.5A8.35,8.35,0,0,0,261.52,292.39Z"/><path d="M291.38,306.86,247.63,443.24a8.37,8.37,0,0,0,5.79,10.63,255.09,255.09,0,0,0,56.32,8.82,8.38,8.38,0,0,0,8.78-8.34V311.7a8.34,8.34,0,0,0-7-8.22q-5.12-.87-10.1-2.14A8.37,8.37,0,0,0,291.38,306.86Z"/><path class="cls-1" d="M438.56,273.3H337.15a112,112,0,0,1-112-112h0V59.89A10.59,10.59,0,0,1,235.74,49.3H438.56a10.59,10.59,0,0,1,10.59,10.59V262.71A10.59,10.59,0,0,1,438.56,273.3Zm-29.41-224v224"/></svg>