<svg id="Layer_1" data-name="Layer 1" xmlns="http://www.w3.org/2000/svg" viewBox="0 0 512 512"><path d="M4.91,319.71H64.5a4.9,4.9,0,0,0,4.9-4.9V300.65a4.9,4.9,0,0,0-6-4.77L3.77,310C-1.89,311.38-.91,319.71,4.91,319.71Z"/><path d="M405.64,223.41v85.15a11.15,11.15,0,0,0,11.15,11.15h84.06A11.15,11.15,0,0,0,512,308.56V203.44a11.14,11.14,0,0,0-13.73-10.84l-84.06,20A11.15,11.15,0,0,0,405.64,223.41Z"/><path d="M86.56,299.19v9.37a11.15,11.15,0,0,0,11.15,11.15h66.9a11.15,11.15,0,0,0,11.15-11.15V283.3A11.15,11.15,0,0,0,162,272.45L95.13,288.34A11.15,11.15,0,0,0,86.56,299.19Z"/><path d="M192.92,273.93v34.63a11.15,11.15,0,0,0,11.15,11.15H271a11.15,11.15,0,0,0,11.15-11.15V258a11.15,11.15,0,0,0-13.72-10.85l-66.91,15.89A11.15,11.15,0,0,0,192.92,273.93Z"/><path d="M299.28,248.67v59.89a11.15,11.15,0,0,0,11.15,11.15h66.9a11.15,11.15,0,0,0,11.15-11.15V232.78a11.15,11.15,0,0,0-13.72-10.85l-66.91,15.89A11.15,11.15,0,0,0,299.28,248.67Z"/></svg>