<svg id="Layer_1" data-name="Layer 1" xmlns="http://www.w3.org/2000/svg" viewBox="0 0 512 512"><path d="M109.63,293.14h34.74a2.86,2.86,0,0,0,2.86-2.86V282a2.85,2.85,0,0,0-3.52-2.78L109,287.5A2.86,2.86,0,0,0,109.63,293.14Z"/><path d="M343.23,237v49.64a6.5,6.5,0,0,0,6.5,6.5h49a6.5,6.5,0,0,0,6.5-6.5V225.36a6.5,6.5,0,0,0-8-6.32l-49,11.64A6.49,6.49,0,0,0,343.23,237Z"/><path d="M157.23,281.18v5.46a6.5,6.5,0,0,0,6.5,6.5h39a6.5,6.5,0,0,0,6.5-6.5V271.91a6.5,6.5,0,0,0-8-6.32l-39,9.26A6.51,6.51,0,0,0,157.23,281.18Z"/><path d="M219.23,266.45v20.19a6.5,6.5,0,0,0,6.5,6.5h39a6.5,6.5,0,0,0,6.5-6.5V257.19a6.5,6.5,0,0,0-8-6.33l-39,9.27A6.49,6.49,0,0,0,219.23,266.45Z"/><path d="M281.23,251.73v34.91a6.5,6.5,0,0,0,6.5,6.5h39a6.5,6.5,0,0,0,6.5-6.5V242.46a6.5,6.5,0,0,0-8-6.32l-39,9.26A6.51,6.51,0,0,0,281.23,251.73Z"/></svg>