<svg id="Layer_1" data-name="Layer 1" xmlns="http://www.w3.org/2000/svg" viewBox="0 0 512 512"><defs><style>.cls-1{fill:none;stroke:#000;stroke-miterlimit:10;stroke-width:10px;}</style></defs><rect class="cls-1" x="45.12" y="102" width="423" height="168" rx="7.94"/><rect class="cls-1" x="90.12" y="233" width="333" height="37" rx="9.82"/><line class="cls-1" x1="45.12" y1="209" x2="468.12" y2="209"/><path d="M349.71,284.76a1.72,1.72,0,0,0-1.44-.86H307.2a2,2,0,0,0-1.69,2.73l17.36,62.5a5.5,5.5,0,0,0,5.9,4A501.39,501.39,0,0,0,378.5,345,5.49,5.49,0,0,0,382,336.7Z"/><path d="M404.35,284.27a1.61,1.61,0,0,0-1-.37H363.8c-1.45,0-2.29,1.93-1.44,3.31l31.16,50.14a5.45,5.45,0,0,0,6.09,2.4,296.57,296.57,0,0,0,42.34-15,5.48,5.48,0,0,0,1.18-9.27Z"/><path d="M308.26,355.1a5.49,5.49,0,0,0,4.87-6.94l-17.45-62.82A1.83,1.83,0,0,0,294,283.9H262a2,2,0,0,0-1.78,2.08v65.5a5.49,5.49,0,0,0,5.52,5.49C280,356.83,294.24,356.2,308.26,355.1Z"/><path d="M206,286.63a2.06,2.06,0,0,0-1.69-2.73h-41a1.71,1.71,0,0,0-1.44.86l-31.36,50.48a5.49,5.49,0,0,0,3.39,8.24,485.78,485.78,0,0,0,49,8.76,5.48,5.48,0,0,0,6-4Z"/><path d="M251.23,286a1.94,1.94,0,0,0-1.77-2.08H217.55a1.83,1.83,0,0,0-1.69,1.44l-17.28,62.2a5.49,5.49,0,0,0,4.8,6.94c13.91,1.27,28.06,2.06,42.27,2.37a5.47,5.47,0,0,0,5.58-5.49Z"/><path d="M113,337.93a5.5,5.5,0,0,0,6.24-2.36l30-48.36c.86-1.38,0-3.31-1.44-3.31H106.26a1.57,1.57,0,0,0-1,.37L69.88,312.76a5.49,5.49,0,0,0,1,9.21A277.23,277.23,0,0,0,113,337.93Z"/></svg>