<svg id="Layer_1" data-name="Layer 1" xmlns="http://www.w3.org/2000/svg" viewBox="0 0 512 512"><defs><style>.cls-1{fill:none;stroke:#000;stroke-miterlimit:10;stroke-width:10px;}</style></defs><rect class="cls-1" x="0.62" y="102.07" width="510.76" height="202.86" rx="7.94"/><rect class="cls-1" x="54.96" y="260.24" width="402.09" height="44.68" rx="9.82"/><line class="cls-1" x1="0.62" y1="231.27" x2="511.38" y2="231.27"/><path d="M368.4,322.74a2.06,2.06,0,0,0-1.74-1H317.07c-1.46,0-2.49,1.66-2,3.29l21,75.47a6.62,6.62,0,0,0,7.12,4.81,605.23,605.23,0,0,0,60.05-9.85,6.62,6.62,0,0,0,4.19-10Z"/><path d="M434.38,322.15a2,2,0,0,0-1.22-.44H385.42c-1.76,0-2.77,2.33-1.74,4l37.62,60.55a6.61,6.61,0,0,0,7.36,2.89,358.47,358.47,0,0,0,51.13-18.07,6.62,6.62,0,0,0,1.42-11.2Z"/><path d="M318.35,407.68a6.64,6.64,0,0,0,5.89-8.38l-21.08-75.86a2.21,2.21,0,0,0-2-1.73h-38.6a2.35,2.35,0,0,0-2.14,2.51v79.09a6.61,6.61,0,0,0,6.66,6.62C284.25,409.76,301.43,409,318.35,407.68Z"/><path d="M194.91,325c.45-1.63-.58-3.29-2-3.29H143.36a2.06,2.06,0,0,0-1.73,1l-37.87,61a6.62,6.62,0,0,0,4.1,9.94A580,580,0,0,0,167,404.22a6.61,6.61,0,0,0,7.2-4.8Z"/><path d="M249.5,324.22a2.35,2.35,0,0,0-2.15-2.51H208.82a2.21,2.21,0,0,0-2,1.73l-20.87,75.11a6.63,6.63,0,0,0,5.81,8.37c16.79,1.54,33.88,2.49,51,2.87a6.62,6.62,0,0,0,6.74-6.62Z"/><path d="M82.53,386.94a6.63,6.63,0,0,0,7.53-2.84l36.29-58.4c1-1.66,0-4-1.74-4H74.45a2,2,0,0,0-1.22.44L30.52,356.56a6.61,6.61,0,0,0,1.25,11.11A333.13,333.13,0,0,0,82.53,386.94Z"/></svg>